<?xml version="1.0" standalone="no"?>
<!DOCTYPE svg PUBLIC "-//W3C//DTD SVG 20010904//EN"
 "http://www.w3.org/TR/2001/REC-SVG-20010904/DTD/svg10.dtd">
<svg version="1.0" xmlns="http://www.w3.org/2000/svg"
 width="225.000000pt" height="225.000000pt" viewBox="0 0 225.000000 225.000000"
 preserveAspectRatio="xMidYMid meet">
<metadata>
Created by potrace 1.14, written by Peter Selinger 2001-2017
</metadata>
<g transform="translate(0.000000,225.000000) scale(0.100000,-0.100000)"
fill="#000000" stroke="none">
<path d="M850 1904 c-490 -43 -760 -136 -831 -289 -17 -37 -19 -73 -19 -488 0
-493 -1 -489 63 -556 107 -112 366 -188 747 -221 148 -13 482 -13 630 0 474
40 755 148 799 307 7 24 11 198 11 476 0 482 0 479 -63 546 -90 94 -290 164
-597 206 -110 15 -629 29 -740 19z m772 -93 c340 -53 533 -138 554 -246 27
-146 -213 -254 -681 -307 -142 -16 -598 -16 -740 0 -468 53 -708 161 -681 307
20 103 210 192 518 240 187 29 275 34 588 30 248 -3 331 -7 442 -24z m-1434
-495 l42 -19 0 -379 0 -378 -39 19 c-46 24 -99 75 -112 108 -5 13 -9 182 -9
374 l0 349 38 -28 c22 -15 58 -36 80 -46z m1987 -634 c-3 -18 -21 -48 -41 -67
-33 -33 -102 -75 -124 -75 -7 0 -10 82 -10 245 0 209 -2 246 -15 251 -8 4 -15
16 -15 29 0 13 7 25 15 29 12 4 15 25 15 100 l0 95 53 24 c28 14 68 36 87 50
l35 25 3 -337 c1 -185 0 -351 -3 -369z m-895 308 c-2 -8 -4 -52 -4 -97 l0 -83
-75 0 c-42 0 -96 5 -120 11 -47 10 -133 49 -165 74 -20 15 -20 15 0 30 30 23
119 64 161 74 21 5 76 9 123 8 70 -2 84 -5 80 -17z m151 -41 c54 -29 58 -33
44 -49 -19 -21 -113 -66 -121 -58 -20 21 -10 138 12 138 3 0 33 -14 65 -31z
m-671 -19 l25 -20 -25 -20 c-35 -28 -40 -25 -40 20 0 45 5 48 40 20z"/>
<path d="M800 1768 c-348 -32 -648 -134 -638 -216 8 -70 209 -149 493 -193
165 -26 592 -37 770 -20 292 28 503 81 612 154 81 54 68 95 -52 155 -102 51
-333 102 -555 122 -135 12 -494 11 -630 -2z m125 -102 c-6 -39 -4 -48 18 -70
26 -26 28 -26 182 -26 154 0 156 0 182 26 22 22 24 31 18 70 -3 26 -2 44 3 44
40 0 238 -24 330 -40 124 -22 282 -70 324 -98 l28 -18 -38 -21 c-47 -27 -174
-66 -277 -87 -312 -62 -827 -63 -1140 0 -102 20 -252 68 -287 92 l-28 18 38
21 c101 57 410 121 625 132 28 1 28 0 22 -43z m323 12 l8 -33 -62 -3 c-35 -2
-94 -2 -132 0 l-68 3 8 33 9 32 114 0 114 0 9 -32z"/>
</g>
</svg>
